<?xml version="1.0" encoding="utf-8"?>
<!-- Generator: Adobe Illustrator 19.0.0, SVG Export Plug-In . SVG Version: 6.00 Build 0)  -->
<svg xmlns:xlink="http://www.w3.org/1999/xlink" version="1.1" id="Layer_1" xmlns="http://www.w3.org/2000/svg" x="0px" y="0px"
	 viewBox="0 0 3417.9 902" style="enable-background:new 0 0 3417.9 902;" xml:space="preserve">
<style type="text/css">
	.st0{fill:#EC5267;}
	.st1{fill-rule:evenodd;clip-rule:evenodd;fill:#EC5267;}
</style>
<g>
	<path class="st0" d="M885.5,375.2c-42.9,16.7-81.6,10.8-133.9-20.1c21.5-121.6-57.5-243.4-168.7-286.6
		c-73.5-28.6-152-26.5-152-26.5C306.3,38.9,95.5,98.7,28.4,248.7c-31,69.2-4.6,195.3,124.4,148.4c35.6-12.9,41.8-26,37.8-32.1
		c-8.7-13.2-28.1,13.8-70.2,0.5c-34.1-10.8-68.3-65.7,1-152.9c68.4-86,194.1-124.2,314-128.2c58.3,2.8,110.2,3,167.4,44
		c73.5,52.7,177.6,217.3,3.3,379.3c-52.9,49.1-115.6,84.9-155.7,70.5c-38-13.7-52-95.1,63.2-155.3c73.6-38.4,138-37.4,147.8-37.4
		c4.1-8.5,7.8-18.3,11-33.3c-62.9-4-110.2,7.1-161.1,25C336.1,438.7,306,643.1,461.7,634.8c71.6-3.8,202.4-65.2,282.8-237.3
		c50.6,17.6,74.4,27.4,119.9,6.2C879.7,396.5,901.1,369.2,885.5,375.2z"/>
	<path class="st1" d="M1995.8,467c-4,3.4-8.6,6.3-12.1,10.3c-10.9,12.7-21.1,26.1-32.2,38.6c-16.5,18.5-32.8,37.4-53.1,52
		c-10.6,7.7-21.2,12.9-34.1,6.5c-6.9-6-8.4-16.8-3.7-26.1c6.6-13.3,12.6-26.9,20.3-39.5c11.1-17.9,23.9-34.8,35.3-52.5
		c12.5-19.2,24.4-38.9,30.1-61.5c6.2-24.7-4.5-44.2-28.7-52.6c-12-4.2-26.7-8.7-58.9,1.5c9.6-22.3,9.4-39.3,0.1-44.2
		c-12.1-4.2-27.3-8.8-43.3,14c-14.4,20.6-13,34.4,10.8,56.5c-10.7,18.1-20.3,36.5-31.5,54.9c-3.6,5.9-8.4,11.8-12.1,17.2
		c-25.9,34.6-49.3,56.3-66.4,71c-29.5,25.3-67,47.1-106.4,52.2c-28.6,3.7-58.8-7.9-56-51c0.1-1.6,0.1-3.2,0.3-4.8
		c4.4-34.2,30.5-70.6,30.7-70.6c18.9-34,44.4-61.5,78.6-80.7c9.5-5.4,19.9-8.6,31.2-7.8c16.8,1.1,24.9,12.4,19.3,28.2
		c-7.3,20.6-22.1,35.4-40.3,46.7c-19.1,11.8-45.2,20-86.6,15.3c0,0-0.5,0.8-0.7,1.1c-0.8,8.3,1.9,13.3,8.9,16.8
		c5.6,2.8,12,5.5,18.2,5.7c36.4,1.8,70.6-6.1,101.2-26.5c19.1-12.8,34.5-29.1,43.2-50.9c9.8-24.3,1.3-45.3-22.9-55.4
		c-6.2-2.6-13.1-4.3-19.8-5.1c-23.1-2.6-44.9,2.7-65.8,12.1c-23.8,10.6-45.2,25-64.6,42.2c-12.8,11.3-29.8,25.4-45.5,32.4
		c-14.2,6.4-56.8-4.3-79.6-31.2c-13.6-7.1-15.8-11.3-10.9,12.9c6.1,8.8,18,40.4,74.2,54.3c0.1,0.5-3.8,8.5-5.3,11.4
		c-11.1,20.7-21.4,41.7-24.2,65.4c-6.4,53.2,23.9,91.9,79.4,92.1c20.8,0.1,41.3-4.8,60.8-13.8c45.4-21.1,83.1-51.3,115.7-88.1v0
		c23.1-25.8,45.6-56.5,62.1-80.6c14.3-20.9,24.3-37.4,37.7-58.1c20.9-9.6,58.8-15.2,33.5,31.1c-11.3,20.6-24.4,40.3-36.8,60.3
		c-15.7,25.2-32.6,49.8-41.7,78.5c-4.9,15.4-9.4,30.7-5.5,47.3c5.7,24.2,21.6,34.8,46.2,31.3c23.9-3.4,42.5-16.6,60.2-31.4
		c35.5-29.6,65.2-64.7,92.4-101.9c2.2-3,4.2-6.2,5.9-9.5C2006.9,475.7,2004,471.2,1995.8,467z"/>
	<path class="st0" d="M1490.9,334.8c-3.9-10.9-11.1-17.3-23.1-18.6c-29.3-3.2-45.8,12.2-48.9,39.4c-1.3,10.9,2.6,22.4,12,36.8
		c-12.6,27-28.4,57.4-46.6,82.7c-19,26.3-39,51.9-66.4,69.8c-11.5,7.5-43.6,23.5-53.6,10c-8-10.8,6-40,10.4-48.1
		c26.9-49.6,54.1-99,81.1-148.5c3.1-5.8,9.2-15.7,12.2-22c-18-0.7-23.1-0.5-32.1-0.7c-19.2-0.6-27.9,5.3-35.6,20.2
		c-15.1,29.2-30.6,58.2-46.8,86.7c-8.5,15-17.9,29.8-28.5,43.4c-20,25.5-69.6,68.1-91.8,72.3c-16.1,3-24.5-9.1-20.1-24.6
		c2-7.1,5.3-13.9,8.7-20.5c26.4-51.2,53.1-102.3,79.6-153.4c3.9-7.5,8.6-16.3,14.8-29.1c-19-0.2-25.9,0.6-38.9,0.7
		c-12.2,0.1-20.5,3.9-25.6,14.7c-1.5,3.2-21.7,46-87.9,65.3v0.1c-33.1,11.1-58.7,3.8-58.7,3.8c-22.4-9-33.2-23-34.9-40.7
		c-1.1-11.2,2-21.8,11.8-27.5c7.8-4.4,20.5-2.2,27.4,4.3c5.9,5.6,15,17.6,5.5,43.3c15.8,4.3,33.5,0.8,43.5-1.9
		c1.4-8,1.4-12.8,1.1-18.9c-1.9-30.2-15.4-54.4-43.2-59.6c-27.5-5.1-58,5.9-78.2,28.1c-15.8,2.9-24.8,5.7-34.7,10.5
		c-53.6,25.7-92,66.7-117,120.1c-11.1,23.8-15.7,49.4-14.2,76c1.6,27.9,17.1,49.6,40.8,56.3c20.2,5.7,40,5.4,60.4-0.3
		c40.4-11.2,71.7-35.9,100-65.3c25.9-27,48.4-59.4,65.4-93c19.2-3.5,51.4-9.9,73.5-23c-3.3,6.4-9.3,17.8-11.5,21.9
		c-14.9,29.2-30.6,58.2-44.4,87.9c-5.1,10.9-8.1,23.8-8.1,35.7c0,28.9,20.5,44.9,48.9,42c25.7-2.6,47.4-13.7,67.2-29.2
		c12.1-9.6,23.6-20.1,36.4-31.1c-3.1,27.2,5.6,50,15.1,57.2c8,7,20.4,8.7,31.8,7.8c21.4-1.6,43.5-10.4,61.8-21.3
		c65.6-39,111.5-93.7,152.1-157c3.3-5.2,10.5-16.5,13.4-21.2c11.2-17.4,16-36,16.7-39C1494.6,362.9,1496,348.8,1490.9,334.8z
		 M916.4,536.7c-14.9,10.4-30.8,18.3-49.8,17.8c-20.4-0.6-31.7-9.9-33.4-29.9c-0.8-9.8-0.4-20.2,2.2-29.5
		c14.4-52.1,44.9-93,90.1-125.7c-2.6,45.3,24.7,66.8,65.2,77.6C969.1,487.9,948.3,514.5,916.4,536.7z"/>
	<path class="st1" d="M399.1,118.2c-97.6,125.1-214.8,423.6-240.5,480C113.1,698.3,60.5,789.5,14.9,835.4
		c-4.5,4.5-19,17.7-13.8,25.8c3.8,5.2,14.2,1.7,20.6-1.5c9.4-4.7,14.7-7.7,27.5-15.6c84.4-59.6,149.8-201.1,163.8-231.2
		c28.4-61.2,54.3-127,82.6-188.3c17-36.8,98-206.2,103.9-216.9c23.9-43.5,32.8-60.4,53.5-93.2C434.7,113.7,422.5,113.1,399.1,118.2z
		"/>
	<path class="st1" d="M3131.5,535.4c-2,1.7-3.5,3.8-5.2,5.7c-31.6,36.9-122.8,79.2-159.4,93.2c9.8-17.1,102.9-188.5,140.6-248.5
		c2.3-3.6,17.4-26.7,17.4-26.7s-28.3,1.3-44.1,1c-15.5-0.3-22.8,3.3-30.5,16.5c-19.9,34.1-47.1,78.3-67.2,112.2
		c-26,43.8-79.7,110.1-115,108.5c-18.1-0.9-24.6-18-16.5-36.7c3.2-7.3,52.9-115.3,86.9-171.5c2-3.3,15.5-25.9,15.5-25.9
		s-25.3,0.7-41.4,1c-14.9,0.3-24.4,3.4-31.8,16.1c-15.3,26.4-63.2,135-85.7,173.1c-8.2,14-11.4,29.5-10.9,45.7
		c0.6,22.3,21.2,39.8,39.5,42.2c26.7,3.5,49.8-2.8,72.3-15.4c23.9-13.3,47.5-40.2,64.7-56.9c-1.6,3-10.8,39.1-41.1,73.2
		c-7.8,8.9-13.4,10.9-24.3,15.3c-41.2,16.8-91.9,36.4-136.1,54.8c-13.9,5.6-68.3,34.9-90.8,51.3c-3.7,3-10.8,7.9-14.4,11.2
		c-13.6,12.5-23.5,27.2-27.7,45.5c-6.8,29.8,7.7,56.6,36.2,66.9c21.9,7.9,44,6.8,65.9,0.7c35.7-9.9,65.1-30.7,92.3-55
		c16.2-14.5,45.6-45.9,45.6-45.9s13.3-14.5,23.3-27.7c20.2-25.4,38.8-52.2,56.4-79.7c7.3-11.4,47.4-27.6,56.6-32.1
		c42.4-20.8,98.8-40.4,136.8-89.3c2.9-3.7,6.3-7.6,7.1-12c0.8-3.9-0.1-9.5-2.5-12.5C3140.2,529.2,3135.2,532.2,3131.5,535.4z
		 M2850.5,745.2c-13.9,13-28.8,27.5-28.8,27.5s-43.4,37.3-62,50.4c-16.3,11.5-33.8,20.2-54.7,20c-22.6-0.3-32.1-14.4-20.6-33.6
		c5.7-9.6,14.7-18.1,23.7-24.8c3.3-2.5,5.3-4.1,6.8-5.2c30.4-19.9,69-37.2,96.2-49.7c24.3-12,52.9-25.1,68.3-31.8
		c7.9-3.6,13.8-1.4,12.7-0.1C2881.3,712.6,2866.7,728.9,2850.5,745.2z"/>
	<path class="st1" d="M2449.2,389.3c0,0-123.5,288.8-313.5,227.6c0,0-121-48.1-28.1-190.7c0,0,6.9-8.1,2.5-9.7c0,0-4.7-4.4-9.5,0.5
		c0,0-138.4,157.3,9,244c0,0,217.6,108.7,399.3-272.8C2508.9,388.1,2492.5,388.1,2449.2,389.3z"/>
	<path class="st1" d="M3088.1,29.6c-17.3-15.4-39.8-20.2-62-20.7c-62.4-1.3-115.8,24.4-165,61.6c-41.5,31.4-71,77.2-98.9,120.8
		c-2.2,3.5-4.6,6.9-7,10.4c-0.2-0.1,2-2.5,1.8-2.6c-60.6-28.7-151-94.3-207.9-129.3c-47.2-28.9-97.9-53.6-155.5-48.5
		c-32.6,2.8-60.6,15.1-82.5,40.2c-10.9,12.6-18,30.7-18,47.5c-0.1,23.7,4.8,40.1,16.7,59.3c21.8,35.1,55.6,56.1,94.4,65.3
		c30.6,7.2,63,9.6,94.7,6.7c4.2-0.4,9.8-0.4,17.2-1.8c-8.2,17.7-24.8,47.4-24.8,47.4l-15.7,30.5c0,0-87.7,4-168,17.8
		c7.6,7.1,11.5,38.6,11.5,38.6c18.8-2.4,38.9-4.4,60.9-5.8c169.4-10.9,211.1-0.8,235.8-1.4c13-0.3,25.3-11.5,23.8-26.4
		c-2-19.6-5.1-19.5-18.4-20.3c-17-1-75-2.1-86.8-1.9c0,0,35.8-76.5,50.8-104.9c4.3-8.2,5.8-15.5-0.6-21.4
		c-7.4-6.9-16.6-12.1-25.9-16.2c-8.5-3.6-24.2-8.7-28.1,2.7c-7,24.6-12.9,25.6-27.6,27.8c-56,8.6-129.1-13.4-159.5-62.9
		c-19.5-31.7-7-68,25.4-76.7c29.4-7.9,45.2-6.6,73.7,1.3c46.8,13.1,80.2,38.9,121.6,64.6c56,34.8,112.2,69.5,172.8,95.9
		c-5.3,10.8-12.2,24.9-17.2,36.1c-23.2,52-138.1,299.3-147.6,322.4c-5.6,13.7-23.1,69.1,33.2,69.1c31.9,0,53.2-21,60.1-27.1
		c35.1-31.2,62.1-69.1,87.1-108.6c1.7-2.6,3-5.6,3.3-9c0.6-4.7-2.8-7.3-5.3-8.4c-7-3.2-13.2,7.8-15.2,10.3
		c-15.1,19.6-46.6,69.6-73,86.8c-6.5,4.2-16.4,5.5-22.9,0.8c-6.5-4.8-7.7-12.2-5.9-19.7c1.7-6.6,4-13.1,6.7-19.4
		c27-61,100.5-219.7,127.8-280.5c6.4-14.3,10.2-24.2,16.9-39.4c-0.4,0,5.1-2.5,5.5-2.9c-0.1,0.3-5.4,2.7-5.5,3
		c38.5,2.5,84.9,0.6,122.9-7.3c55.3-11.5,106.5-31,151.5-65.8c19.1-14.7,33.9-35.8,44.3-58C3115.8,83.2,3108.3,47.6,3088.1,29.6z
		 M3061.3,85.9c-2.1,22.2-13.1,39.7-27.9,55.2c-21.9,22.9-53.9,40-83.2,51.6c-49.9,19.9-90.9,25.8-144.2,20.7
		c-1.2-0.1-5.1-0.5-8.3-1.3c12.2-19.4,40.4-84,116.5-132.1c32.5-20.6,72.1-40.3,111.5-37.7C3058.2,44.6,3062.9,67.9,3061.3,85.9z"/>
	<g>
		<g id="XMLID_38_">
			<path id="XMLID_39_" class="st0" d="M2273.2,348.9l-37.8-0.1c-8.9,0-18.1,7.6-19.8,16.3L2192,487.5c-1.7,8.7,4.7,16,13.6,16
				l37.8,0.1c9.2,0,18.1-7.3,19.8-16l23.6-122.5C2288.4,356.5,2282.6,348.9,2273.2,348.9z M2239.7,479.2l-21.1-0.1l20.4-105.9
				l21.1,0L2239.7,479.2z"/>
		</g>
	</g>
	<g>
		<polygon id="XMLID_19_" class="st0" points="2197.9,348.7 2128.5,348.6 2123.8,373 2146,373.1 2120.8,503.4 2145.8,503.4
			2171,373.1 2193.2,373.1 		"/>
	</g>
</g>
<g id="XMLID_112_">
	<path id="XMLID_113_" class="st0" d="M3264.1,461.2h-20.4v-79.1h-26.1v-16.9h72.5v16.9h-26.1V461.2z"/>
	<path id="XMLID_115_" class="st0" d="M3352.3,461.2l-23.1-75.3h-0.6c0.8,15.3,1.2,25.5,1.2,30.7v44.7h-18.2v-96h27.7l22.7,73.4h0.4
		l24.1-73.4h27.7v96h-19v-45.4c0-2.1,0-4.6,0.1-7.4c0.1-2.8,0.4-10.2,0.9-22.3h-0.6l-24.8,75.2H3352.3z"/>
</g>
</svg>
